# xmcd
#
# Track frame offsets:
#	150
#	22512
#	46002
#	52712
#	74017
#	113527
#	130367
#	171200
#	194615
#	196737
#	230047
#
# Disc length: 3363 seconds
#
# Revision: 6
# Processed by: cddbd v1.5.2PL0 Copyright (c) Steve Scherf et al.
# Submitted via: EasyCDDAExtractor 15.3.0.1
#
DISCID=8b0d210b
DTITLE=Lissette - ¡En Vivo! - CD 2
DYEAR=2001
DGENRE=Latin
TTITLE0=Encandilada
TTITLE1=Lo Voy A Dividir, Te Propongo
TTITLE2=Presentacion
TTITLE3=Para Siempre (Con Alana Y Nicolle)
TTITLE4=Medley De Exitos II (Si Un Dia Te Sientes Solo, Señora Melancolia, Un 
TTITLE4=Poco Mas, Salvaje)
TTITLE5=Mal Sueño
TTITLE6=Medley De Exitos III (Maquina, No Soy Una Señora, Maniqui, Panico Orga
TTITLE6=nizado, Eva)
TTITLE7=Bello Idiota
TTITLE8=Despedida
TTITLE9=Eclipse Total Del Amor
TTITLE10=Regresare
EXTD=YEAR: 2001 ID3G:  98
EXTT0=
EXTT1=
EXTT2=
EXTT3=
EXTT4=
EXTT5=
EXTT6=
EXTT7=
EXTT8=
EXTT9=
EXTT10=
PLAYORDER=
